<?xml version="1.0" encoding="UTF-8"?><svg id="a" xmlns="http://www.w3.org/2000/svg" viewBox="0 0 520 520"><defs><style>.c{fill:none;stroke:#fff;stroke-linecap:round;stroke-width:16px;}.c,.d{stroke-miterlimit:10;}.d{fill:#f26722;stroke:#f26722;stroke-width:8px;}</style></defs><g id="b"><path class="d" d="M140.29,515.6H55.62L226.66,196.21l-36-77.54c-8.7-18.68-18.96-33.91-30.79-45.7-11.83-11.78-25.9-17.68-42.21-17.68-2.72,0-7.75.28-15.09.83-7.34.56-11.56.83-12.64.83V8.6c5.44-1.11,12.44-2.22,21-3.34,8.56-1.11,16.11-1.67,22.63-1.67,35.07,0,63.01,9.01,83.81,27.02,20.8,18.01,36.63,39.03,47.51,63.04l146.81,315.54c5.98,15.79,13.8,28.35,23.45,37.69,9.65,9.34,20.45,14.01,32.42,14.01,3.8,0,6.32-.05,7.55-.17,1.22-.11,5.1-.61,11.62-1.5v51.2c-2.99,1.11-8.23,2.38-13.25,3.5-5.03,1.11-9.04,1.67-12.03,1.67-32.08,0-57.85-7.22-77.28-21.68-19.44-14.45-36.36-37.24-50.77-68.38l-68.81-147.94-124.29,238Z"/></g><path class="c" d="M113.54,30.54s69.43-13.55,108.39,64.6c16.25,32.61,74.16,155.15,144.76,313.82,41.59,93.47,92.55,78.95,92.55,78.95"/><line class="c" x1="105.96" y1="496.96" x2="268.68" y2="193.51"/></svg>