<?xml version="1.0" encoding="UTF-8"?><svg id="a" xmlns="http://www.w3.org/2000/svg" viewBox="0 0 512 512"><defs><style>.b{fill:#000;}.b,.c{stroke-width:0px;}.c{fill:red;}</style></defs><circle class="c" cx="417.78" cy="87.19" r="53.37"/><path class="b" d="M481.87,135.26c-10.3,13.71-24.91,24-41.81,28.88,13.86,27.67,21.68,58.87,21.68,91.86,0,113.45-92.3,205.75-205.75,205.75S50.25,369.45,50.25,256,142.55,50.25,256,50.25c29.89,0,58.3,6.41,83.95,17.92,4.18-17.15,13.86-32.14,27.08-42.97C332.83,8.71,295.09,0,256,0,187.62,0,123.33,26.63,74.98,74.98,26.63,123.33,0,187.62,0,256s26.63,132.67,74.98,181.02c48.35,48.35,112.64,74.98,181.02,74.98s132.67-26.63,181.02-74.98c48.35-48.35,74.98-112.64,74.98-181.02,0-42.82-10.45-84.04-30.13-120.74Z"/></svg>